<svg width="1398" height="1035" viewBox="0 0 1398 1035" fill="none" xmlns="http://www.w3.org/2000/svg">
<path d="M1345.36 888.954C1341.53 888.954 1337.69 887.962 1334.27 885.987L1296.87 864.394C1294.7 863.141 1293.4 860.898 1293.4 858.393C1293.4 855.892 1294.7 853.648 1296.87 852.396L1334.27 830.803C1341.11 826.854 1349.61 826.851 1356.46 830.803L1393.86 852.396C1396.03 853.648 1397.33 855.892 1397.33 858.393C1397.33 860.898 1396.03 863.141 1393.86 864.394L1356.46 885.987C1353.04 887.962 1349.2 888.954 1345.36 888.954ZM1345.36 833.769C1342.55 833.769 1339.74 834.493 1337.23 835.939L1299.83 857.533C1299.4 857.784 1299.33 858.183 1299.33 858.393C1299.33 858.607 1299.4 859.005 1299.83 859.26L1337.23 880.853H1337.24C1342.25 883.747 1348.48 883.747 1353.5 880.853L1390.89 859.26C1391.33 859.008 1391.39 858.61 1391.39 858.393C1391.39 858.183 1391.32 857.784 1390.89 857.533L1353.49 835.939C1350.98 834.49 1348.17 833.769 1345.36 833.769Z" fill="url(#paint0_linear_215_345)"/>
<path d="M1238.39 766.422C1232.16 766.422 1225.93 764.819 1220.37 761.606L1156.01 724.443C1152.94 722.675 1151.11 719.51 1151.11 715.973C1151.11 712.436 1152.94 709.268 1156.01 707.503L1220.37 670.342C1231.48 663.921 1245.29 663.918 1256.41 670.342L1320.78 707.503C1323.84 709.271 1325.67 712.436 1325.67 715.97C1325.67 719.507 1323.85 722.674 1320.78 724.446L1256.42 761.606C1250.86 764.816 1244.62 766.422 1238.39 766.422ZM1223.33 756.473C1232.63 761.833 1244.16 761.833 1253.45 756.473L1317.82 719.313C1319.55 718.309 1319.74 716.642 1319.74 715.973C1319.74 715.304 1319.55 713.643 1317.82 712.636L1253.45 675.476C1244.16 670.116 1232.62 670.116 1223.33 675.476L1158.97 712.636C1157.23 713.64 1157.04 715.304 1157.04 715.973C1157.04 716.642 1157.23 718.306 1158.97 719.309L1223.33 756.473Z" fill="url(#paint1_linear_215_345)"/>
<path d="M87.2838 824.904C81.0506 824.904 74.8206 823.301 69.263 820.089L4.8916 782.929C1.82599 781.157 0 777.989 0 774.452C0 770.918 1.82918 767.75 4.8916 765.985L69.2566 728.825C80.3687 722.4 94.1862 722.4 105.301 728.825L169.667 765.988C172.732 767.757 174.561 770.921 174.561 774.458C174.561 777.996 172.732 781.163 169.667 782.929L105.305 820.089C99.7502 823.298 93.5138 824.904 87.2838 824.904ZM87.2806 729.94C82.0736 729.94 76.8665 731.282 72.2203 733.962L7.85524 771.122C6.11848 772.126 5.93046 773.789 5.93046 774.458C5.93046 775.128 6.11848 776.791 7.85842 777.798L72.2235 814.958C81.5159 820.318 93.0486 820.318 102.341 814.958L166.703 777.798C168.443 776.794 168.628 775.131 168.628 774.462C168.628 773.792 168.44 772.132 166.703 771.125L102.338 733.962C97.6916 731.279 92.4845 729.94 87.2806 729.94Z" fill="url(#paint2_linear_215_345)"/>
<path opacity="0.6" d="M739.108 987.025L278.853 721.295C272.145 717.423 272.986 710.658 280.733 706.183L576.131 535.634C583.878 531.163 595.595 530.676 602.303 534.551L1062.56 800.284C1069.27 804.159 1068.43 810.924 1060.68 815.395L765.281 985.941C757.537 990.415 745.816 990.9 739.108 987.025Z" fill="#020230"/>
<path d="M749.653 1035C744.27 1035 739.111 1033.88 735.169 1031.61H735.172L209.882 728.331C205.59 725.858 203.229 722.286 203.229 718.277C203.229 713.672 206.434 709.179 212.024 705.951L570.095 496.164C579.916 490.491 594.342 489.946 602.95 494.914L1128.24 798.193C1132.53 800.666 1134.89 804.241 1134.89 808.247C1134.89 812.852 1131.68 817.342 1126.09 820.57L768.024 1030.36C762.699 1033.43 756.023 1035 749.653 1035ZM588.536 497.473C583.157 497.473 577.44 498.77 573.077 501.285L215.01 711.072C211.342 713.191 209.162 715.88 209.162 718.27C209.162 720.581 211.167 722.222 212.846 723.194L738.136 1026.47H738.139C744.844 1030.35 757.17 1029.78 765.038 1025.23L1123.11 815.443C1126.78 813.324 1128.96 810.637 1128.96 808.244C1128.96 805.937 1126.95 804.296 1125.27 803.324L599.986 500.045C596.99 498.321 592.873 497.473 588.536 497.473Z" fill="url(#paint3_linear_215_345)"/>
<path d="M1184.83 354.785L726.387 90.101C723.235 88.2813 719.946 87.9053 717.03 88.7562L717.027 88.7594C717.015 88.7625 716.999 88.7689 716.986 88.7721L708.496 91.7294L711.486 92.4368C710.287 93.8549 709.322 95.6139 708.688 97.6789L605.011 434.294C602.443 442.64 606.206 452.783 613.415 456.945L1071.86 721.629C1072.98 722.273 1074.11 722.716 1075.23 723.006L1074.1 725.479L1082.21 722.63L1082.19 722.623C1085.51 721.301 1088.25 718.334 1089.57 714.048L1193.24 377.433C1195.8 369.087 1192.04 358.947 1184.83 354.785Z" fill="url(#paint4_radial_215_345)"/>
<path d="M1055.45 734.198L1055.61 734.392L602.784 472.955C596.124 469.109 584.486 469.593 576.796 474.032L284.228 642.947L274.474 639.221L277.214 652.908L277.227 652.902C277.59 654.96 279.031 656.888 281.618 658.383L738.63 922.239C745.29 926.085 756.928 925.601 764.617 921.162L1057.93 751.817C1061.55 749.727 1063.63 747.136 1064.15 744.574L1064.16 744.593L1066.96 731.272L1055.45 734.198Z" fill="url(#paint5_radial_215_345)"/>
<path d="M739.108 910.193L278.853 644.464C272.145 640.592 272.986 633.826 280.733 629.352L576.131 458.806C583.878 454.335 595.595 453.848 602.303 457.723L1062.56 723.452C1069.27 727.324 1068.43 734.093 1060.68 738.564L765.281 909.11C757.537 913.581 745.816 914.068 739.108 910.193Z" fill="url(#paint6_radial_215_345)"/>
<path d="M1060.68 734.978L765.28 905.524C757.533 909.998 745.816 910.483 739.108 906.611L278.852 640.881C276.567 639.562 275.226 637.895 274.668 636.107C273.779 639.192 275.079 642.286 278.852 644.463L739.111 910.193C745.819 914.065 757.537 913.58 765.284 909.109L1060.68 738.563C1065.79 735.616 1067.83 731.68 1066.75 728.225C1066.05 730.625 1064.07 733.022 1060.68 734.978Z" fill="white"/>
<g opacity="0.4">
<path d="M498.388 601.341L482.849 592.37C481.6 591.65 481.759 590.392 483.2 589.56L501.539 578.97C502.98 578.139 505.159 578.049 506.409 578.77L521.947 587.74C523.196 588.46 523.037 589.719 521.596 590.551L503.254 601.14C501.816 601.972 499.637 602.061 498.388 601.341Z" fill="#06033E"/>
<path d="M522.384 615.197L506.845 606.226C505.596 605.506 505.755 604.247 507.196 603.415L525.538 592.826C526.979 591.994 529.159 591.905 530.405 592.625L545.943 601.596C547.192 602.316 547.033 603.575 545.592 604.407L527.253 614.996C525.813 615.825 523.633 615.917 522.384 615.197Z" fill="#06033E"/>
<path d="M546.383 629.049L530.844 620.079C529.598 619.359 529.755 618.1 531.195 617.268L549.538 606.679C550.978 605.847 553.158 605.758 554.404 606.478L569.942 615.448C571.188 616.169 571.032 617.427 569.592 618.259L551.249 628.849C549.809 629.68 547.629 629.769 546.383 629.049Z" fill="#06033E"/>
<path d="M579.573 617.609L564.034 608.638C562.785 607.918 562.944 606.66 564.385 605.828L579.78 596.94C581.22 596.108 583.4 596.019 584.646 596.739L600.184 605.71C601.43 606.43 601.274 607.689 599.834 608.521L584.439 617.408C582.998 618.24 580.819 618.329 579.573 617.609Z" fill="#06033E"/>
<path d="M603.568 631.465L588.03 622.494C586.781 621.774 586.94 620.515 588.381 619.684L603.779 610.796C605.219 609.964 607.399 609.875 608.645 610.595L624.183 619.566C625.432 620.286 625.273 621.545 623.833 622.376L608.435 631.264C606.994 632.093 604.814 632.185 603.568 631.465Z" fill="#06033E"/>
<path d="M627.564 645.317L612.025 636.347C610.776 635.627 610.935 634.368 612.376 633.536L627.774 624.648C629.214 623.817 631.394 623.727 632.64 624.448L648.178 633.418C649.428 634.138 649.268 635.397 647.828 636.229L632.43 645.117C630.993 645.948 628.813 646.038 627.564 645.317Z" fill="#06033E"/>
<path d="M651.559 659.173L636.021 650.202C634.772 649.482 634.931 648.224 636.372 647.392L651.767 638.504C653.207 637.672 655.387 637.583 656.633 638.303L672.171 647.274C673.42 647.994 673.261 649.253 671.821 650.085L656.426 658.972C654.988 659.801 652.809 659.893 651.559 659.173Z" fill="#06033E"/>
<path d="M675.559 673.026L660.02 664.055C658.771 663.335 658.93 662.077 660.371 661.245L675.769 652.357C677.209 651.525 679.389 651.436 680.635 652.156L696.173 661.127C697.419 661.847 697.263 663.106 695.823 663.938L680.428 672.825C678.984 673.657 676.805 673.746 675.559 673.026Z" fill="#06033E"/>
<path d="M699.555 686.882L684.016 677.911C682.767 677.191 682.926 675.932 684.367 675.101L699.762 666.213C701.202 665.381 703.382 665.292 704.628 666.012L720.166 674.983C721.412 675.703 721.256 676.962 719.816 677.793L704.421 686.681C702.98 687.513 700.801 687.602 699.555 686.882Z" fill="#06033E"/>
<path d="M723.55 700.737L708.012 691.767C706.763 691.046 706.922 689.788 708.363 688.956L723.758 680.068C725.198 679.237 727.378 679.147 728.624 679.868L744.162 688.838C745.408 689.558 745.252 690.817 743.812 691.649L728.413 700.536C726.979 701.365 724.8 701.457 723.55 700.737Z" fill="#06033E"/>
<path d="M747.547 714.59L732.009 705.619C730.763 704.899 730.919 703.641 732.359 702.809L747.757 693.921C749.198 693.089 751.377 693 752.623 693.72L768.162 702.691C769.411 703.411 769.252 704.67 767.811 705.502L752.413 714.389C750.976 715.221 748.796 715.31 747.547 714.59Z" fill="#06033E"/>
<path d="M771.546 728.446L756.008 719.475C754.762 718.755 754.918 717.496 756.358 716.664L771.756 707.777C773.197 706.945 775.376 706.856 776.622 707.576L792.161 716.547C793.41 717.267 793.251 718.526 791.81 719.357L776.415 728.245C774.972 729.077 772.792 729.166 771.546 728.446Z" fill="#06033E"/>
<path d="M795.542 742.298L780.003 733.328C778.754 732.608 778.913 731.349 780.354 730.517L795.749 721.629C797.189 720.798 799.369 720.708 800.615 721.429L816.153 730.399C817.399 731.119 817.243 732.378 815.803 733.21L800.405 742.101C798.967 742.929 796.788 743.019 795.542 742.298Z" fill="#06033E"/>
<path d="M614.929 611.051L599.39 602.08C598.141 601.36 598.301 600.101 599.741 599.269L615.136 590.382C616.576 589.55 618.756 589.461 620.005 590.181L635.544 599.152C636.79 599.872 636.633 601.131 635.193 601.962L619.798 610.85C618.355 611.679 616.175 611.771 614.929 611.051Z" fill="#06033E"/>
<path d="M590.573 596.988L575.034 588.017C573.788 587.297 573.945 586.038 575.385 585.207L590.78 576.316C592.22 575.484 594.4 575.395 595.649 576.115L611.188 585.085C612.437 585.806 612.277 587.064 610.837 587.896L595.442 596.784C594.002 597.619 591.822 597.708 590.573 596.988Z" fill="#06033E"/>
<path d="M566.178 582.903L532.712 563.582C531.466 562.861 531.622 561.603 533.062 560.771L548.457 551.883C549.898 551.052 552.077 550.962 553.323 551.682L586.79 571.003C588.039 571.724 587.88 572.982 586.44 573.814L571.045 582.702C569.607 583.534 567.428 583.623 566.178 582.903Z" fill="#06033E"/>
<path d="M583.23 565.774L556.07 550.092C554.821 549.372 554.98 548.113 556.421 547.282L571.816 538.391C573.256 537.559 575.436 537.47 576.682 538.19L603.842 553.872C605.088 554.592 604.932 555.851 603.491 556.682L588.096 565.57C586.656 566.405 584.476 566.498 583.23 565.774Z" fill="#06033E"/>
<path d="M638.925 624.903L623.386 615.933C622.137 615.213 622.296 613.954 623.737 613.122L639.132 604.231C640.572 603.399 642.752 603.31 643.998 604.03L659.536 613.001C660.782 613.721 660.626 614.98 659.186 615.812L643.791 624.699C642.354 625.534 640.174 625.623 638.925 624.903Z" fill="#06033E"/>
<path d="M662.92 638.759L647.382 629.788C646.136 629.068 646.292 627.81 647.732 626.978L663.127 618.087C664.568 617.255 666.747 617.166 667.993 617.886L683.532 626.857C684.781 627.577 684.621 628.836 683.181 629.667L667.783 638.555C666.349 639.39 664.169 639.479 662.92 638.759Z" fill="#06033E"/>
<path d="M686.92 652.612L671.381 643.641C670.132 642.921 670.292 641.663 671.732 640.831L687.13 631.943C688.57 631.111 690.75 631.022 691.996 631.742L707.535 640.713C708.784 641.433 708.624 642.692 707.184 643.524L691.786 652.411C690.345 653.243 688.166 653.332 686.92 652.612Z" fill="#06033E"/>
<path d="M710.915 666.468L695.377 657.497C694.127 656.777 694.287 655.518 695.727 654.686L711.125 645.799C712.566 644.967 714.745 644.878 715.991 645.598L731.53 654.569C732.776 655.289 732.62 656.547 731.179 657.379L715.784 666.267C714.341 667.099 712.161 667.188 710.915 666.468Z" fill="#06033E"/>
<path d="M734.911 680.323L719.373 671.353C718.127 670.632 718.283 669.374 719.723 668.542L735.118 659.654C736.559 658.822 738.738 658.733 739.984 659.453L755.523 668.424C756.769 669.144 756.613 670.403 755.172 671.235L739.774 680.122C738.34 680.951 736.16 681.043 734.911 680.323Z" fill="#06033E"/>
<path d="M758.907 694.176L743.369 685.205C742.119 684.485 742.279 683.226 743.719 682.395L759.117 673.507C760.558 672.675 762.737 672.586 763.983 673.306L779.522 682.277C780.771 682.997 780.611 684.256 779.171 685.088L763.773 693.975C762.336 694.807 760.156 694.896 758.907 694.176Z" fill="#06033E"/>
<path d="M782.906 708.032L767.368 699.061C766.118 698.341 766.278 697.082 767.718 696.25L783.116 687.363C784.557 686.531 786.736 686.442 787.982 687.162L803.521 696.133C804.77 696.853 804.611 698.111 803.17 698.943L787.775 707.831C786.332 708.659 784.152 708.752 782.906 708.032Z" fill="#06033E"/>
<path d="M806.902 721.884L791.364 712.914C790.115 712.193 790.274 710.935 791.714 710.103L807.113 701.215C808.553 700.384 810.733 700.294 811.979 701.014L827.517 709.985C828.766 710.705 828.607 711.964 827.166 712.796L811.772 721.684C810.331 722.515 808.151 722.608 806.902 721.884Z" fill="#06033E"/>
<path d="M830.898 735.74L815.36 726.77C814.114 726.049 814.27 724.791 815.71 723.959L831.105 715.071C832.546 714.239 834.725 714.15 835.975 714.87L851.513 723.841C852.759 724.561 852.603 725.82 851.162 726.652L835.768 735.539C834.327 736.371 832.147 736.46 830.898 735.74Z" fill="#06033E"/>
<path d="M873.559 760.37L839.655 740.794C838.409 740.074 838.565 738.815 840.006 737.984L855.404 729.093C856.844 728.261 859.024 728.172 860.27 728.892L894.173 748.468C895.423 749.188 895.263 750.447 893.823 751.279L878.428 760.166C876.987 761.001 874.808 761.09 873.559 760.37Z" fill="#06033E"/>
<path d="M920.279 733.398L891.662 716.875C890.413 716.155 890.573 714.896 892.013 714.064L907.411 705.176C908.851 704.345 911.031 704.255 912.277 704.976L940.894 721.499C942.14 722.219 941.984 723.478 940.543 724.309L925.145 733.197C923.705 734.029 921.525 734.118 920.279 733.398Z" fill="#06033E"/>
<path d="M680.948 622.195L665.41 613.224C664.16 612.504 664.32 611.245 665.76 610.414L681.155 601.526C682.595 600.694 684.775 600.605 686.024 601.325L701.563 610.296C702.812 611.016 702.652 612.275 701.212 613.106L685.817 621.994C684.377 622.823 682.197 622.915 680.948 622.195Z" fill="#06033E"/>
<path d="M656.356 607.994L640.817 599.024C639.568 598.304 639.728 597.045 641.168 596.213L656.566 587.325C658.007 586.494 660.186 586.404 661.432 587.125L676.971 596.095C678.22 596.815 678.06 598.074 676.62 598.906L661.222 607.794C659.782 608.622 657.602 608.715 656.356 607.994Z" fill="#06033E"/>
<path d="M631.761 593.795L616.223 584.824C614.973 584.104 615.133 582.845 616.573 582.014L631.971 573.126C633.412 572.294 635.591 572.205 636.837 572.925L652.376 581.896C653.625 582.616 653.465 583.875 652.025 584.706L636.63 593.594C635.187 594.426 633.01 594.515 631.761 593.795Z" fill="#06033E"/>
<path d="M607.169 579.595L591.631 570.624C590.385 569.904 590.541 568.645 591.981 567.813L607.376 558.926C608.817 558.094 610.996 558.005 612.242 558.725L627.781 567.695C629.027 568.416 628.871 569.674 627.43 570.506L612.032 579.394C610.595 580.226 608.415 580.315 607.169 579.595Z" fill="#06033E"/>
<path d="M704.947 636.047L689.409 627.077C688.16 626.356 688.319 625.098 689.759 624.266L705.158 615.375C706.598 614.543 708.778 614.454 710.024 615.174L725.562 624.145C726.811 624.865 726.652 626.124 725.211 626.955L709.813 635.846C708.373 636.678 706.193 636.767 704.947 636.047Z" fill="#06033E"/>
<path d="M728.942 649.903L713.404 640.933C712.155 640.213 712.314 638.954 713.754 638.122L729.149 629.234C730.59 628.403 732.77 628.313 734.016 629.034L749.554 638.004C750.803 638.724 750.644 639.983 749.203 640.815L733.805 649.706C732.368 650.534 730.188 650.623 728.942 649.903Z" fill="#06033E"/>
<path d="M752.938 663.756L737.4 654.785C736.151 654.065 736.31 652.806 737.75 651.975L753.145 643.084C754.586 642.252 756.765 642.163 758.015 642.883L773.553 651.853C774.799 652.574 774.643 653.832 773.202 654.664L757.807 663.552C756.364 664.387 754.187 664.476 752.938 663.756Z" fill="#06033E"/>
<path d="M776.934 677.612L761.396 668.641C760.147 667.921 760.306 666.662 761.746 665.83L777.141 656.939C778.582 656.108 780.761 656.018 782.007 656.739L797.546 665.709C798.795 666.429 798.636 667.688 797.195 668.52L781.8 677.411C780.363 678.242 778.183 678.332 776.934 677.612Z" fill="#06033E"/>
<path d="M800.933 691.467L785.395 682.497C784.146 681.776 784.305 680.518 785.746 679.686L801.141 670.798C802.581 669.967 804.761 669.877 806.007 670.597L821.545 679.568C822.794 680.288 822.635 681.547 821.195 682.379L805.796 691.27C804.359 692.095 802.179 692.187 800.933 691.467Z" fill="#06033E"/>
<path d="M824.929 705.32L809.391 696.349C808.142 695.629 808.301 694.37 809.741 693.539L825.139 684.648C826.58 683.816 828.76 683.727 830.006 684.447L845.544 693.417C846.793 694.138 846.634 695.396 845.193 696.228L829.795 705.116C828.355 705.951 826.175 706.04 824.929 705.32Z" fill="#06033E"/>
<path d="M848.926 719.175L833.387 710.205C832.141 709.485 832.297 708.226 833.738 707.394L849.136 698.507C850.576 697.675 852.756 697.586 854.002 698.306L869.54 707.276C870.786 707.997 870.63 709.255 869.19 710.087L853.795 718.975C852.355 719.806 850.175 719.896 848.926 719.175Z" fill="#06033E"/>
<path d="M872.925 733.029L857.386 724.058C856.14 723.338 856.296 722.079 857.737 721.247L873.135 712.36C874.575 711.528 876.755 711.439 878.001 712.159L893.539 721.129C894.785 721.85 894.629 723.108 893.189 723.94L877.791 732.828C876.35 733.659 874.171 733.749 872.925 733.029Z" fill="#06033E"/>
<path d="M896.92 746.884L881.382 737.914C880.133 737.193 880.292 735.935 881.732 735.103L897.127 726.215C898.568 725.384 900.748 725.294 901.994 726.014L917.532 734.985C918.781 735.705 918.625 736.964 917.181 737.796L901.783 746.687C900.346 747.515 898.166 747.604 896.92 746.884Z" fill="#06033E"/>
<path d="M668.312 587.925L652.774 578.954C651.525 578.234 651.684 576.975 653.125 576.143L668.519 567.256C669.96 566.424 672.14 566.335 673.389 567.055L688.927 576.026C690.176 576.746 690.017 578.005 688.577 578.836L673.182 587.724C671.738 588.556 669.562 588.645 668.312 587.925Z" fill="#06033E"/>
<path d="M644.434 574.139L628.896 565.168C627.65 564.448 627.806 563.189 629.246 562.358L644.641 553.467C646.081 552.635 648.261 552.546 649.51 553.266L665.049 562.237C666.298 562.957 666.139 564.215 664.698 565.047L649.303 573.935C647.863 574.77 645.683 574.859 644.434 574.139Z" fill="#06033E"/>
<path d="M620.559 560.354L605.021 551.383C603.775 550.663 603.931 549.404 605.371 548.572L620.766 539.682C622.207 538.85 624.386 538.761 625.632 539.481L641.171 548.451C642.417 549.172 642.261 550.43 640.82 551.262L625.425 560.153C623.985 560.985 621.805 561.074 620.559 560.354Z" fill="#06033E"/>
<path d="M596.682 546.568L581.143 537.597C579.897 536.877 580.053 535.619 581.494 534.787L596.889 525.899C598.329 525.067 600.509 524.978 601.755 525.698L617.293 534.669C618.543 535.389 618.386 536.648 616.943 537.48L601.548 546.367C600.107 547.199 597.928 547.288 596.682 546.568Z" fill="#06033E"/>
<path d="M621.236 532.393L605.697 523.423C604.448 522.703 604.607 521.444 606.048 520.612L611.137 517.674C612.577 516.842 614.757 516.753 616.003 517.473L631.541 526.444C632.79 527.164 632.631 528.423 631.191 529.254L626.102 532.193C624.661 533.021 622.482 533.114 621.236 532.393Z" fill="#06033E"/>
<path d="M652.395 550.382L636.856 541.412C635.61 540.692 635.766 539.433 637.207 538.601L642.296 535.663C643.736 534.831 645.916 534.742 647.162 535.462L662.7 544.433C663.95 545.153 663.79 546.412 662.35 547.243L657.261 550.182C655.82 551.013 653.641 551.103 652.395 550.382Z" fill="#06033E"/>
<path d="M676.171 564.111L660.633 555.14C659.383 554.42 659.543 553.161 660.983 552.329L666.072 549.391C667.513 548.56 669.692 548.47 670.942 549.191L686.48 558.161C687.726 558.881 687.57 560.14 686.129 560.972L681.04 563.91C679.6 564.742 677.42 564.831 676.171 564.111Z" fill="#06033E"/>
<path d="M699.95 577.839L684.412 568.868C683.166 568.148 683.322 566.889 684.762 566.057L689.851 563.119C691.292 562.288 693.471 562.198 694.717 562.919L710.256 571.889C711.505 572.609 711.346 573.868 709.905 574.7L704.816 577.638C703.376 578.47 701.196 578.559 699.95 577.839Z" fill="#06033E"/>
<path d="M723.726 591.567L708.187 582.597C706.941 581.876 707.098 580.618 708.538 579.786L713.627 576.848C715.068 576.016 717.247 575.927 718.493 576.647L734.032 585.618C735.281 586.338 735.122 587.597 733.681 588.428L728.592 591.366C727.155 592.198 724.975 592.287 723.726 591.567Z" fill="#06033E"/>
<path d="M856.474 668.211L840.936 659.24C839.69 658.52 839.846 657.261 841.287 656.43L846.376 653.491C847.816 652.66 849.996 652.57 851.242 653.291L866.78 662.261C868.029 662.981 867.87 664.24 866.43 665.072L861.34 668.01C859.903 668.839 857.724 668.931 856.474 668.211Z" fill="#06033E"/>
<path d="M880.254 681.936L864.715 672.965C863.466 672.245 863.626 670.986 865.066 670.155L870.155 667.216C871.596 666.385 873.775 666.296 875.024 667.016L890.563 675.986C891.812 676.706 891.653 677.965 890.212 678.797L885.123 681.735C883.679 682.567 881.5 682.659 880.254 681.936Z" fill="#06033E"/>
<path d="M904.033 695.664L888.494 686.693C887.245 685.973 887.404 684.714 888.845 683.883L893.934 680.945C895.374 680.113 897.554 680.024 898.8 680.744L914.338 689.714C915.584 690.435 915.428 691.693 913.988 692.525L908.899 695.463C907.458 696.295 905.279 696.387 904.033 695.664Z" fill="#06033E"/>
<path d="M927.808 709.392L912.27 700.422C911.021 699.702 911.18 698.443 912.621 697.611L917.71 694.673C919.15 693.841 921.33 693.752 922.576 694.472L938.114 703.443C939.363 704.163 939.204 705.422 937.764 706.254L932.675 709.192C931.234 710.023 929.058 710.113 927.808 709.392Z" fill="#06033E"/>
<path d="M692.308 601.781L676.77 592.81C675.524 592.09 675.68 590.831 677.121 589.999L692.515 581.112C693.956 580.28 696.136 580.191 697.382 580.911L712.92 589.882C714.166 590.602 714.01 591.861 712.569 592.692L697.174 601.58C695.737 602.409 693.558 602.501 692.308 601.781Z" fill="#06033E"/>
<path d="M716.307 615.633L700.769 606.663C699.52 605.943 699.679 604.684 701.119 603.852L716.514 594.965C717.955 594.133 720.135 594.044 721.381 594.764L736.919 603.734C738.168 604.455 738.009 605.713 736.568 606.545L721.173 615.433C719.733 616.264 717.553 616.354 716.307 615.633Z" fill="#06033E"/>
<path d="M740.304 629.489L724.765 620.519C723.516 619.798 723.675 618.54 725.116 617.708L740.511 608.82C741.951 607.989 744.131 607.899 745.377 608.619L760.915 617.59C762.164 618.31 762.005 619.569 760.565 620.401L745.167 629.292C743.729 630.12 741.553 630.209 740.304 629.489Z" fill="#06033E"/>
<path d="M764.299 643.345L748.761 634.374C747.512 633.654 747.671 632.395 749.111 631.563L764.51 622.676C765.95 621.844 768.13 621.755 769.376 622.475L784.914 631.446C786.163 632.166 786.004 633.424 784.563 634.256L769.169 643.144C767.728 643.972 765.548 644.065 764.299 643.345Z" fill="#06033E"/>
<path d="M788.298 657.197L772.76 648.227C771.514 647.507 771.67 646.248 773.11 645.416L788.508 636.528C789.949 635.697 792.128 635.608 793.374 636.328L808.913 645.298C810.159 646.018 810.003 647.277 808.562 648.109L793.167 657C791.724 657.828 789.544 657.918 788.298 657.197Z" fill="#06033E"/>
<path d="M812.294 671.053L796.755 662.083C795.506 661.362 795.665 660.104 797.106 659.272L812.504 650.384C813.944 649.552 816.124 649.463 817.37 650.183L832.908 659.154C834.154 659.874 833.998 661.133 832.558 661.965L817.16 670.856C815.719 671.681 813.54 671.773 812.294 671.053Z" fill="#06033E"/>
<path d="M836.29 684.906L820.751 675.935C819.502 675.215 819.661 673.956 821.102 673.124L836.5 664.237C837.94 663.405 840.12 663.316 841.366 664.036L856.904 673.007C858.154 673.727 857.994 674.985 856.554 675.817L841.156 684.705C839.715 685.537 837.539 685.626 836.29 684.906Z" fill="#06033E"/>
<path d="M860.286 698.762L844.747 689.791C843.498 689.071 843.657 687.812 845.098 686.98L860.493 678.093C861.933 677.261 864.113 677.172 865.359 677.892L880.897 686.863C882.146 687.583 881.987 688.841 880.547 689.673L865.152 698.564C863.714 699.393 861.535 699.482 860.286 698.762Z" fill="#06033E"/>
<path d="M884.285 712.614L868.746 703.644C867.5 702.924 867.657 701.665 869.097 700.833L884.495 691.945C885.935 691.114 888.115 691.025 889.361 691.745L904.899 700.715C906.149 701.435 905.989 702.694 904.549 703.526L889.154 712.414C887.71 713.245 885.531 713.338 884.285 712.614Z" fill="#06033E"/>
<path d="M555.117 603.489L509.353 577.068C508.107 576.348 508.263 575.089 509.704 574.257L525.099 565.37C526.539 564.538 528.719 564.449 529.968 565.169L575.732 591.59C576.978 592.31 576.822 593.569 575.382 594.4L559.983 603.288C558.543 604.12 556.363 604.212 555.117 603.489Z" fill="#06033E"/>
<path d="M849.923 773.697L804.158 747.276C802.912 746.556 803.068 745.297 804.509 744.466L819.907 735.578C821.347 734.746 823.527 734.657 824.773 735.377L870.537 761.798C871.786 762.518 871.627 763.777 870.187 764.609L854.789 773.496C853.348 774.325 851.169 774.417 849.923 773.697Z" fill="#06033E"/>
<path d="M753.955 748.892L738.416 739.921C737.167 739.201 737.326 737.942 738.767 737.11L757.11 726.521C758.55 725.689 760.73 725.6 761.976 726.32L777.514 735.291C778.76 736.011 778.604 737.27 777.163 738.101L758.821 748.691C757.384 749.523 755.204 749.615 753.955 748.892Z" fill="#06033E"/>
<path d="M579.689 648.281L554.84 633.934C553.594 633.214 553.75 631.955 555.19 631.124L573.533 620.534C574.973 619.703 577.153 619.613 578.399 620.334L603.249 634.68C604.498 635.4 604.339 636.659 602.898 637.491L584.556 648.08C583.118 648.912 580.939 649.001 579.689 648.281Z" fill="#06033E"/>
<path d="M730.835 735.546L705.985 721.199C704.736 720.479 704.896 719.22 706.336 718.388L724.679 707.799C726.119 706.967 728.299 706.878 729.545 707.598L754.395 721.945C755.641 722.665 755.485 723.924 754.044 724.755L735.705 735.345C734.261 736.173 732.081 736.266 730.835 735.546Z" fill="#06033E"/>
<path d="M614.313 668.271L589.463 653.925C588.217 653.204 588.374 651.946 589.814 651.114L608.157 640.525C609.597 639.693 611.777 639.604 613.023 640.324L637.873 654.67C639.122 655.391 638.962 656.649 637.522 657.481L619.179 668.07C617.739 668.899 615.559 668.991 614.313 668.271Z" fill="#06033E"/>
<path d="M613.189 640.419L721.234 702.799C722.576 703.573 722.576 704.829 721.234 705.603L702.531 716.4C701.19 717.174 699.016 717.174 697.675 716.4L589.63 654.02L613.189 640.419Z" fill="#06033E"/>
<path d="M821.022 774.012L838.332 784.006C839.355 784.595 839.228 785.628 838.045 786.31L830.541 790.641C829.362 791.323 827.574 791.396 826.551 790.806L809.244 780.813C808.221 780.223 808.349 779.191 809.531 778.509L817.032 774.178C818.215 773.496 819.999 773.423 821.022 774.012Z" fill="#06033E"/>
<path d="M796.826 760.042L814.136 770.036C815.159 770.625 815.031 771.658 813.849 772.34L806.348 776.67C805.165 777.352 803.381 777.426 802.358 776.836L785.051 766.843C784.028 766.253 784.156 765.221 785.338 764.539L792.839 760.208C794.018 759.529 795.803 759.453 796.826 760.042Z" fill="#06033E"/>
<path d="M772.83 746.189L790.14 756.183C791.163 756.773 791.036 757.805 789.853 758.487L782.352 762.818C781.17 763.5 779.385 763.573 778.362 762.983L761.052 752.99C760.029 752.4 760.156 751.368 761.339 750.686L768.84 746.355C770.022 745.673 771.807 745.6 772.83 746.189Z" fill="#06033E"/>
<path d="M810.08 752.394L827.387 762.387C828.41 762.977 828.282 764.009 827.1 764.691L819.595 769.022C818.416 769.704 816.628 769.777 815.606 769.188L798.295 759.194C797.272 758.605 797.4 757.572 798.582 756.89L806.087 752.56C807.269 751.878 809.057 751.801 810.08 752.394Z" fill="#06033E"/>
</g>
<g opacity="0.4">
<path d="M498.388 601.341L482.849 592.37C481.6 591.65 481.759 590.392 483.2 589.56L501.539 578.97C502.98 578.139 505.159 578.049 506.409 578.77L521.947 587.74C523.196 588.46 523.037 589.719 521.596 590.551L503.254 601.14C501.816 601.972 499.637 602.061 498.388 601.341Z" fill="#06033E"/>
<path d="M522.384 615.197L506.845 606.226C505.596 605.506 505.755 604.247 507.196 603.415L525.538 592.826C526.979 591.994 529.159 591.905 530.405 592.625L545.943 601.596C547.192 602.316 547.033 603.575 545.592 604.407L527.253 614.996C525.813 615.825 523.633 615.917 522.384 615.197Z" fill="#06033E"/>
<path d="M546.383 629.049L530.844 620.079C529.598 619.359 529.755 618.1 531.195 617.268L549.538 606.679C550.978 605.847 553.158 605.758 554.404 606.478L569.942 615.448C571.188 616.169 571.032 617.427 569.592 618.259L551.249 628.849C549.809 629.68 547.629 629.769 546.383 629.049Z" fill="#06033E"/>
<path d="M579.573 617.609L564.034 608.638C562.785 607.918 562.944 606.66 564.385 605.828L579.78 596.94C581.22 596.108 583.4 596.019 584.646 596.739L600.184 605.71C601.43 606.43 601.274 607.689 599.834 608.521L584.439 617.408C582.998 618.24 580.819 618.329 579.573 617.609Z" fill="#06033E"/>
<path d="M603.568 631.465L588.03 622.494C586.781 621.774 586.94 620.515 588.381 619.684L603.779 610.796C605.219 609.964 607.399 609.875 608.645 610.595L624.183 619.566C625.432 620.286 625.273 621.545 623.833 622.376L608.435 631.264C606.994 632.093 604.814 632.185 603.568 631.465Z" fill="#06033E"/>
<path d="M627.564 645.317L612.025 636.347C610.776 635.627 610.935 634.368 612.376 633.536L627.774 624.648C629.214 623.817 631.394 623.727 632.64 624.448L648.178 633.418C649.428 634.138 649.268 635.397 647.828 636.229L632.43 645.117C630.993 645.948 628.813 646.038 627.564 645.317Z" fill="#06033E"/>
<path d="M651.559 659.173L636.021 650.202C634.772 649.482 634.931 648.224 636.372 647.392L651.767 638.504C653.207 637.672 655.387 637.583 656.633 638.303L672.171 647.274C673.42 647.994 673.261 649.253 671.821 650.085L656.426 658.972C654.988 659.801 652.809 659.893 651.559 659.173Z" fill="#06033E"/>
<path d="M675.559 673.026L660.02 664.055C658.771 663.335 658.93 662.077 660.371 661.245L675.769 652.357C677.209 651.525 679.389 651.436 680.635 652.156L696.173 661.127C697.419 661.847 697.263 663.106 695.823 663.938L680.428 672.825C678.984 673.657 676.805 673.746 675.559 673.026Z" fill="#06033E"/>
<path d="M699.555 686.882L684.016 677.911C682.767 677.191 682.926 675.932 684.367 675.101L699.762 666.213C701.202 665.381 703.382 665.292 704.628 666.012L720.166 674.983C721.412 675.703 721.256 676.962 719.816 677.793L704.421 686.681C702.98 687.513 700.801 687.602 699.555 686.882Z" fill="#06033E"/>
<path d="M723.55 700.737L708.012 691.767C706.763 691.046 706.922 689.788 708.363 688.956L723.758 680.068C725.198 679.237 727.378 679.147 728.624 679.868L744.162 688.838C745.408 689.558 745.252 690.817 743.812 691.649L728.413 700.536C726.979 701.365 724.8 701.457 723.55 700.737Z" fill="#06033E"/>
<path d="M747.547 714.59L732.009 705.619C730.763 704.899 730.919 703.641 732.359 702.809L747.757 693.921C749.198 693.089 751.377 693 752.623 693.72L768.162 702.691C769.411 703.411 769.252 704.67 767.811 705.502L752.413 714.389C750.976 715.221 748.796 715.31 747.547 714.59Z" fill="#06033E"/>
<path d="M771.546 728.446L756.008 719.475C754.762 718.755 754.918 717.496 756.358 716.664L771.756 707.777C773.197 706.945 775.376 706.856 776.622 707.576L792.161 716.547C793.41 717.267 793.251 718.526 791.81 719.357L776.415 728.245C774.972 729.077 772.792 729.166 771.546 728.446Z" fill="#06033E"/>
<path d="M795.542 742.298L780.003 733.328C778.754 732.608 778.913 731.349 780.354 730.517L795.749 721.629C797.189 720.798 799.369 720.708 800.615 721.429L816.153 730.399C817.399 731.119 817.243 732.378 815.803 733.21L800.405 742.101C798.967 742.929 796.788 743.019 795.542 742.298Z" fill="#06033E"/>
<path d="M614.929 611.051L599.39 602.08C598.141 601.36 598.301 600.101 599.741 599.269L615.136 590.382C616.576 589.55 618.756 589.461 620.005 590.181L635.544 599.152C636.79 599.872 636.633 601.131 635.193 601.962L619.798 610.85C618.355 611.679 616.175 611.771 614.929 611.051Z" fill="#06033E"/>
<path d="M590.573 596.988L575.034 588.017C573.788 587.297 573.945 586.038 575.385 585.207L590.78 576.316C592.22 575.484 594.4 575.395 595.649 576.115L611.188 585.085C612.437 585.806 612.277 587.064 610.837 587.896L595.442 596.784C594.002 597.619 591.822 597.708 590.573 596.988Z" fill="#06033E"/>
<path d="M566.178 582.903L532.712 563.582C531.466 562.861 531.622 561.603 533.062 560.771L548.457 551.883C549.898 551.052 552.077 550.962 553.323 551.682L586.79 571.003C588.039 571.724 587.88 572.982 586.44 573.814L571.045 582.702C569.607 583.534 567.428 583.623 566.178 582.903Z" fill="#06033E"/>
<path d="M583.23 565.774L556.07 550.092C554.821 549.372 554.98 548.113 556.421 547.282L571.816 538.391C573.256 537.559 575.436 537.47 576.682 538.19L603.842 553.872C605.088 554.592 604.932 555.851 603.491 556.682L588.096 565.57C586.656 566.405 584.476 566.498 583.23 565.774Z" fill="#06033E"/>
<path d="M638.925 624.903L623.386 615.933C622.137 615.213 622.296 613.954 623.737 613.122L639.132 604.231C640.572 603.399 642.752 603.31 643.998 604.03L659.536 613.001C660.782 613.721 660.626 614.98 659.186 615.812L643.791 624.699C642.354 625.534 640.174 625.623 638.925 624.903Z" fill="#06033E"/>
<path d="M662.92 638.759L647.382 629.788C646.136 629.068 646.292 627.81 647.732 626.978L663.127 618.087C664.568 617.255 666.747 617.166 667.993 617.886L683.532 626.857C684.781 627.577 684.621 628.836 683.181 629.667L667.783 638.555C666.349 639.39 664.169 639.479 662.92 638.759Z" fill="#06033E"/>
<path d="M686.92 652.612L671.381 643.641C670.132 642.921 670.292 641.663 671.732 640.831L687.13 631.943C688.57 631.111 690.75 631.022 691.996 631.742L707.535 640.713C708.784 641.433 708.624 642.692 707.184 643.524L691.786 652.411C690.345 653.243 688.166 653.332 686.92 652.612Z" fill="#06033E"/>
<path d="M710.915 666.468L695.377 657.497C694.127 656.777 694.287 655.518 695.727 654.686L711.125 645.799C712.566 644.967 714.745 644.878 715.991 645.598L731.53 654.569C732.776 655.289 732.62 656.547 731.179 657.379L715.784 666.267C714.341 667.099 712.161 667.188 710.915 666.468Z" fill="#06033E"/>
<path d="M734.911 680.323L719.373 671.353C718.127 670.632 718.283 669.374 719.723 668.542L735.118 659.654C736.559 658.822 738.738 658.733 739.984 659.453L755.523 668.424C756.769 669.144 756.613 670.403 755.172 671.235L739.774 680.122C738.34 680.951 736.16 681.043 734.911 680.323Z" fill="#06033E"/>
<path d="M758.907 694.176L743.369 685.205C742.119 684.485 742.279 683.226 743.719 682.395L759.117 673.507C760.558 672.675 762.737 672.586 763.983 673.306L779.522 682.277C780.771 682.997 780.611 684.256 779.171 685.088L763.773 693.975C762.336 694.807 760.156 694.896 758.907 694.176Z" fill="#06033E"/>
<path d="M782.906 708.032L767.368 699.061C766.118 698.341 766.278 697.082 767.718 696.25L783.116 687.363C784.557 686.531 786.736 686.442 787.982 687.162L803.521 696.133C804.77 696.853 804.611 698.111 803.17 698.943L787.775 707.831C786.332 708.659 784.152 708.752 782.906 708.032Z" fill="#06033E"/>
<path d="M806.902 721.884L791.364 712.914C790.115 712.193 790.274 710.935 791.714 710.103L807.113 701.215C808.553 700.384 810.733 700.294 811.979 701.014L827.517 709.985C828.766 710.705 828.607 711.964 827.166 712.796L811.772 721.684C810.331 722.515 808.151 722.608 806.902 721.884Z" fill="#06033E"/>
<path d="M830.898 735.74L815.36 726.77C814.114 726.049 814.27 724.791 815.71 723.959L831.105 715.071C832.546 714.239 834.725 714.15 835.975 714.87L851.513 723.841C852.759 724.561 852.603 725.82 851.162 726.652L835.768 735.539C834.327 736.371 832.147 736.46 830.898 735.74Z" fill="#06033E"/>
<path d="M873.559 760.37L839.655 740.794C838.409 740.074 838.565 738.815 840.006 737.984L855.404 729.093C856.844 728.261 859.024 728.172 860.27 728.892L894.173 748.468C895.423 749.188 895.263 750.447 893.823 751.279L878.428 760.166C876.987 761.001 874.808 761.09 873.559 760.37Z" fill="#06033E"/>
<path d="M920.279 733.398L891.662 716.875C890.413 716.155 890.573 714.896 892.013 714.064L907.411 705.176C908.851 704.345 911.031 704.255 912.277 704.976L940.894 721.499C942.14 722.219 941.984 723.478 940.543 724.309L925.145 733.197C923.705 734.029 921.525 734.118 920.279 733.398Z" fill="#06033E"/>
<path d="M680.948 622.195L665.41 613.224C664.16 612.504 664.32 611.245 665.76 610.414L681.155 601.526C682.595 600.694 684.775 600.605 686.024 601.325L701.563 610.296C702.812 611.016 702.652 612.275 701.212 613.106L685.817 621.994C684.377 622.823 682.197 622.915 680.948 622.195Z" fill="#06033E"/>
<path d="M656.356 607.994L640.817 599.024C639.568 598.304 639.728 597.045 641.168 596.213L656.566 587.325C658.007 586.494 660.186 586.404 661.432 587.125L676.971 596.095C678.22 596.815 678.06 598.074 676.62 598.906L661.222 607.794C659.782 608.622 657.602 608.715 656.356 607.994Z" fill="#06033E"/>
<path d="M631.761 593.795L616.223 584.824C614.973 584.104 615.133 582.845 616.573 582.014L631.971 573.126C633.412 572.294 635.591 572.205 636.837 572.925L652.376 581.896C653.625 582.616 653.465 583.875 652.025 584.706L636.63 593.594C635.187 594.426 633.01 594.515 631.761 593.795Z" fill="#06033E"/>
<path d="M607.169 579.595L591.631 570.624C590.385 569.904 590.541 568.645 591.981 567.813L607.376 558.926C608.817 558.094 610.996 558.005 612.242 558.725L627.781 567.695C629.027 568.416 628.871 569.674 627.43 570.506L612.032 579.394C610.595 580.226 608.415 580.315 607.169 579.595Z" fill="#06033E"/>
<path d="M704.947 636.047L689.409 627.077C688.16 626.356 688.319 625.098 689.759 624.266L705.158 615.375C706.598 614.543 708.778 614.454 710.024 615.174L725.562 624.145C726.811 624.865 726.652 626.124 725.211 626.955L709.813 635.846C708.373 636.678 706.193 636.767 704.947 636.047Z" fill="#06033E"/>
<path d="M728.942 649.903L713.404 640.933C712.155 640.213 712.314 638.954 713.754 638.122L729.149 629.234C730.59 628.403 732.77 628.313 734.016 629.034L749.554 638.004C750.803 638.724 750.644 639.983 749.203 640.815L733.805 649.706C732.368 650.534 730.188 650.623 728.942 649.903Z" fill="#06033E"/>
<path d="M752.938 663.756L737.4 654.785C736.151 654.065 736.31 652.806 737.75 651.975L753.145 643.084C754.586 642.252 756.765 642.163 758.015 642.883L773.553 651.853C774.799 652.574 774.643 653.832 773.202 654.664L757.807 663.552C756.364 664.387 754.187 664.476 752.938 663.756Z" fill="#06033E"/>
<path d="M776.934 677.612L761.396 668.641C760.147 667.921 760.306 666.662 761.746 665.83L777.141 656.939C778.582 656.108 780.761 656.018 782.007 656.739L797.546 665.709C798.795 666.429 798.636 667.688 797.195 668.52L781.8 677.411C780.363 678.242 778.183 678.332 776.934 677.612Z" fill="#06033E"/>
<path d="M800.933 691.467L785.395 682.497C784.146 681.776 784.305 680.518 785.746 679.686L801.141 670.798C802.581 669.967 804.761 669.877 806.007 670.597L821.545 679.568C822.794 680.288 822.635 681.547 821.195 682.379L805.796 691.27C804.359 692.095 802.179 692.187 800.933 691.467Z" fill="#06033E"/>
<path d="M824.929 705.32L809.391 696.349C808.142 695.629 808.301 694.37 809.741 693.539L825.139 684.648C826.58 683.816 828.76 683.727 830.006 684.447L845.544 693.417C846.793 694.138 846.634 695.396 845.193 696.228L829.795 705.116C828.355 705.951 826.175 706.04 824.929 705.32Z" fill="#06033E"/>
<path d="M848.926 719.175L833.387 710.205C832.141 709.485 832.297 708.226 833.738 707.394L849.136 698.507C850.576 697.675 852.756 697.586 854.002 698.306L869.54 707.276C870.786 707.997 870.63 709.255 869.19 710.087L853.795 718.975C852.355 719.806 850.175 719.896 848.926 719.175Z" fill="#06033E"/>
<path d="M872.925 733.029L857.386 724.058C856.14 723.338 856.296 722.079 857.737 721.247L873.135 712.36C874.575 711.528 876.755 711.439 878.001 712.159L893.539 721.129C894.785 721.85 894.629 723.108 893.189 723.94L877.791 732.828C876.35 733.659 874.171 733.749 872.925 733.029Z" fill="#06033E"/>
<path d="M896.92 746.884L881.382 737.914C880.133 737.193 880.292 735.935 881.732 735.103L897.127 726.215C898.568 725.384 900.748 725.294 901.994 726.014L917.532 734.985C918.781 735.705 918.625 736.964 917.181 737.796L901.783 746.687C900.346 747.515 898.166 747.604 896.92 746.884Z" fill="#06033E"/>
<path d="M668.312 587.925L652.774 578.954C651.525 578.234 651.684 576.975 653.125 576.143L668.519 567.256C669.96 566.424 672.14 566.335 673.389 567.055L688.927 576.026C690.176 576.746 690.017 578.005 688.577 578.836L673.182 587.724C671.738 588.556 669.562 588.645 668.312 587.925Z" fill="#06033E"/>
<path d="M644.434 574.139L628.896 565.168C627.65 564.448 627.806 563.189 629.246 562.358L644.641 553.467C646.081 552.635 648.261 552.546 649.51 553.266L665.049 562.237C666.298 562.957 666.139 564.215 664.698 565.047L649.303 573.935C647.863 574.77 645.683 574.859 644.434 574.139Z" fill="#06033E"/>
<path d="M620.559 560.354L605.021 551.383C603.775 550.663 603.931 549.404 605.371 548.572L620.766 539.682C622.207 538.85 624.386 538.761 625.632 539.481L641.171 548.451C642.417 549.172 642.261 550.43 640.82 551.262L625.425 560.153C623.985 560.985 621.805 561.074 620.559 560.354Z" fill="#06033E"/>
<path d="M596.682 546.568L581.143 537.597C579.897 536.877 580.053 535.619 581.494 534.787L596.889 525.899C598.329 525.067 600.509 524.978 601.755 525.698L617.293 534.669C618.543 535.389 618.386 536.648 616.943 537.48L601.548 546.367C600.107 547.199 597.928 547.288 596.682 546.568Z" fill="#06033E"/>
<path d="M621.236 532.393L605.697 523.423C604.448 522.703 604.607 521.444 606.048 520.612L611.137 517.674C612.577 516.842 614.757 516.753 616.003 517.473L631.541 526.444C632.79 527.164 632.631 528.423 631.191 529.254L626.102 532.193C624.661 533.021 622.482 533.114 621.236 532.393Z" fill="#06033E"/>
<path d="M652.395 550.382L636.856 541.412C635.61 540.692 635.766 539.433 637.207 538.601L642.296 535.663C643.736 534.831 645.916 534.742 647.162 535.462L662.7 544.433C663.95 545.153 663.79 546.412 662.35 547.243L657.261 550.182C655.82 551.013 653.641 551.103 652.395 550.382Z" fill="#06033E"/>
<path d="M676.171 564.111L660.633 555.14C659.383 554.42 659.543 553.161 660.983 552.329L666.072 549.391C667.513 548.56 669.692 548.47 670.942 549.191L686.48 558.161C687.726 558.881 687.57 560.14 686.129 560.972L681.04 563.91C679.6 564.742 677.42 564.831 676.171 564.111Z" fill="#06033E"/>
<path d="M699.95 577.839L684.412 568.868C683.166 568.148 683.322 566.889 684.762 566.057L689.851 563.119C691.292 562.288 693.471 562.198 694.717 562.919L710.256 571.889C711.505 572.609 711.346 573.868 709.905 574.7L704.816 577.638C703.376 578.47 701.196 578.559 699.95 577.839Z" fill="#06033E"/>
<path d="M723.726 591.567L708.187 582.597C706.941 581.876 707.098 580.618 708.538 579.786L713.627 576.848C715.068 576.016 717.247 575.927 718.493 576.647L734.032 585.618C735.281 586.338 735.122 587.597 733.681 588.428L728.592 591.366C727.155 592.198 724.975 592.287 723.726 591.567Z" fill="#06033E"/>
<path d="M856.474 668.211L840.936 659.24C839.69 658.52 839.846 657.261 841.287 656.43L846.376 653.491C847.816 652.66 849.996 652.57 851.242 653.291L866.78 662.261C868.029 662.981 867.87 664.24 866.43 665.072L861.34 668.01C859.903 668.839 857.724 668.931 856.474 668.211Z" fill="#06033E"/>
<path d="M880.254 681.936L864.715 672.965C863.466 672.245 863.626 670.986 865.066 670.155L870.155 667.216C871.596 666.385 873.775 666.296 875.024 667.016L890.563 675.986C891.812 676.706 891.653 677.965 890.212 678.797L885.123 681.735C883.679 682.567 881.5 682.659 880.254 681.936Z" fill="#06033E"/>
<path d="M904.033 695.664L888.494 686.693C887.245 685.973 887.404 684.714 888.845 683.883L893.934 680.945C895.374 680.113 897.554 680.024 898.8 680.744L914.338 689.714C915.584 690.435 915.428 691.693 913.988 692.525L908.899 695.463C907.458 696.295 905.279 696.387 904.033 695.664Z" fill="#06033E"/>
<path d="M927.808 709.392L912.27 700.422C911.021 699.702 911.18 698.443 912.621 697.611L917.71 694.673C919.15 693.841 921.33 693.752 922.576 694.472L938.114 703.443C939.363 704.163 939.204 705.422 937.764 706.254L932.675 709.192C931.234 710.023 929.058 710.113 927.808 709.392Z" fill="#06033E"/>
<path d="M692.308 601.781L676.77 592.81C675.524 592.09 675.68 590.831 677.121 589.999L692.515 581.112C693.956 580.28 696.136 580.191 697.382 580.911L712.92 589.882C714.166 590.602 714.01 591.861 712.569 592.692L697.174 601.58C695.737 602.409 693.558 602.501 692.308 601.781Z" fill="#06033E"/>
<path d="M716.307 615.633L700.769 606.663C699.52 605.943 699.679 604.684 701.119 603.852L716.514 594.965C717.955 594.133 720.135 594.044 721.381 594.764L736.919 603.734C738.168 604.455 738.009 605.713 736.568 606.545L721.173 615.433C719.733 616.264 717.553 616.354 716.307 615.633Z" fill="#06033E"/>
<path d="M740.304 629.489L724.765 620.519C723.516 619.798 723.675 618.54 725.116 617.708L740.511 608.82C741.951 607.989 744.131 607.899 745.377 608.619L760.915 617.59C762.164 618.31 762.005 619.569 760.565 620.401L745.167 629.292C743.729 630.12 741.553 630.209 740.304 629.489Z" fill="#06033E"/>
<path d="M764.299 643.345L748.761 634.374C747.512 633.654 747.671 632.395 749.111 631.563L764.51 622.676C765.95 621.844 768.13 621.755 769.376 622.475L784.914 631.446C786.163 632.166 786.004 633.424 784.563 634.256L769.169 643.144C767.728 643.972 765.548 644.065 764.299 643.345Z" fill="#06033E"/>
<path d="M788.298 657.197L772.76 648.227C771.514 647.507 771.67 646.248 773.11 645.416L788.508 636.528C789.949 635.697 792.128 635.608 793.374 636.328L808.913 645.298C810.159 646.018 810.003 647.277 808.562 648.109L793.167 657C791.724 657.828 789.544 657.918 788.298 657.197Z" fill="#06033E"/>
<path d="M812.294 671.053L796.755 662.083C795.506 661.362 795.665 660.104 797.106 659.272L812.504 650.384C813.944 649.552 816.124 649.463 817.37 650.183L832.908 659.154C834.154 659.874 833.998 661.133 832.558 661.965L817.16 670.856C815.719 671.681 813.54 671.773 812.294 671.053Z" fill="#06033E"/>
<path d="M836.29 684.906L820.751 675.935C819.502 675.215 819.661 673.956 821.102 673.124L836.5 664.237C837.94 663.405 840.12 663.316 841.366 664.036L856.904 673.007C858.154 673.727 857.994 674.985 856.554 675.817L841.156 684.705C839.715 685.537 837.539 685.626 836.29 684.906Z" fill="#06033E"/>
<path d="M860.286 698.762L844.747 689.791C843.498 689.071 843.657 687.812 845.098 686.98L860.493 678.093C861.933 677.261 864.113 677.172 865.359 677.892L880.897 686.863C882.146 687.583 881.987 688.841 880.547 689.673L865.152 698.564C863.714 699.393 861.535 699.482 860.286 698.762Z" fill="#06033E"/>
<path d="M884.285 712.614L868.746 703.644C867.5 702.924 867.657 701.665 869.097 700.833L884.495 691.945C885.935 691.114 888.115 691.025 889.361 691.745L904.899 700.715C906.149 701.435 905.989 702.694 904.549 703.526L889.154 712.414C887.71 713.245 885.531 713.338 884.285 712.614Z" fill="#06033E"/>
<path d="M555.117 603.489L509.353 577.068C508.107 576.348 508.263 575.089 509.704 574.257L525.099 565.37C526.539 564.538 528.719 564.449 529.968 565.169L575.732 591.59C576.978 592.31 576.822 593.569 575.382 594.4L559.983 603.288C558.543 604.12 556.363 604.212 555.117 603.489Z" fill="#06033E"/>
<path d="M849.923 773.697L804.158 747.276C802.912 746.556 803.068 745.297 804.509 744.466L819.907 735.578C821.347 734.746 823.527 734.657 824.773 735.377L870.537 761.798C871.786 762.518 871.627 763.777 870.187 764.609L854.789 773.496C853.348 774.325 851.169 774.417 849.923 773.697Z" fill="#06033E"/>
<path d="M753.955 748.892L738.416 739.921C737.167 739.201 737.326 737.942 738.767 737.11L757.11 726.521C758.55 725.689 760.73 725.6 761.976 726.32L777.514 735.291C778.76 736.011 778.604 737.27 777.163 738.101L758.821 748.691C757.384 749.523 755.204 749.615 753.955 748.892Z" fill="#06033E"/>
<path d="M579.689 648.281L554.84 633.934C553.594 633.214 553.75 631.955 555.19 631.124L573.533 620.534C574.973 619.703 577.153 619.613 578.399 620.334L603.249 634.68C604.498 635.4 604.339 636.659 602.898 637.491L584.556 648.08C583.118 648.912 580.939 649.001 579.689 648.281Z" fill="#06033E"/>
<path d="M730.835 735.546L705.985 721.199C704.736 720.479 704.896 719.22 706.336 718.388L724.679 707.799C726.119 706.967 728.299 706.878 729.545 707.598L754.395 721.945C755.641 722.665 755.485 723.924 754.044 724.755L735.705 735.345C734.261 736.173 732.081 736.266 730.835 735.546Z" fill="#06033E"/>
<path d="M614.313 668.271L589.463 653.925C588.217 653.204 588.374 651.946 589.814 651.114L608.157 640.525C609.597 639.693 611.777 639.604 613.023 640.324L637.873 654.67C639.122 655.391 638.962 656.649 637.522 657.481L619.179 668.07C617.739 668.899 615.559 668.991 614.313 668.271Z" fill="#06033E"/>
<path d="M613.189 640.419L721.234 702.799C722.576 703.573 722.576 704.829 721.234 705.603L702.531 716.4C701.19 717.174 699.016 717.174 697.675 716.4L589.63 654.02L613.189 640.419Z" fill="#06033E"/>
<path d="M821.022 774.012L838.332 784.006C839.355 784.595 839.228 785.628 838.045 786.31L830.541 790.641C829.362 791.323 827.574 791.396 826.551 790.806L809.244 780.813C808.221 780.223 808.349 779.191 809.531 778.509L817.032 774.178C818.215 773.496 819.999 773.423 821.022 774.012Z" fill="#06033E"/>
<path d="M796.826 760.042L814.136 770.036C815.159 770.625 815.031 771.658 813.849 772.34L806.348 776.67C805.165 777.352 803.381 777.426 802.358 776.836L785.051 766.843C784.028 766.253 784.156 765.221 785.338 764.539L792.839 760.208C794.018 759.529 795.803 759.453 796.826 760.042Z" fill="#06033E"/>
<path d="M772.83 746.189L790.14 756.183C791.163 756.773 791.036 757.805 789.853 758.487L782.352 762.818C781.17 763.5 779.385 763.573 778.362 762.983L761.052 752.99C760.029 752.4 760.156 751.368 761.339 750.686L768.84 746.355C770.022 745.673 771.807 745.6 772.83 746.189Z" fill="#06033E"/>
<path d="M810.08 752.394L827.387 762.387C828.41 762.977 828.282 764.009 827.1 764.691L819.595 769.022C818.416 769.704 816.628 769.777 815.606 769.188L798.295 759.194C797.272 758.605 797.4 757.572 798.582 756.89L806.087 752.56C807.269 751.878 809.057 751.801 810.08 752.394Z" fill="#06033E"/>
</g>
<path d="M1064.04 724.364L605.598 459.679C598.39 455.517 594.626 445.374 597.195 437.028L700.871 100.413C703.439 92.0674 711.365 88.6735 718.573 92.8354L1177.02 357.52C1184.23 361.682 1187.99 371.822 1185.42 380.171L1081.75 716.786C1079.18 725.135 1071.26 728.526 1064.04 724.364Z" fill="url(#paint7_radial_215_345)"/>
<path d="M1059.72 712.576L615.056 455.635C608.157 451.652 604.556 441.948 607.013 433.959L706.132 112.156C708.589 104.167 716.173 100.92 723.073 104.903L1167.74 361.844C1174.64 365.827 1178.24 375.531 1175.78 383.52L1076.66 705.323C1074.21 713.312 1066.62 716.559 1059.72 712.576Z" fill="url(#paint8_linear_215_345)"/>
<path opacity="0.4" d="M1059.72 712.576L615.056 455.635C608.157 451.652 604.556 441.948 607.013 433.959L706.132 112.156C708.589 104.167 716.173 100.92 723.073 104.903L1167.74 361.844C1174.64 365.827 1178.24 375.531 1175.78 383.52L1076.66 705.323C1074.21 713.312 1066.62 716.559 1059.72 712.576Z" fill="#06033E"/>
<path opacity="0.4" d="M1059.72 712.576L615.056 455.635C608.157 451.652 604.556 441.948 607.013 433.959L706.132 112.156C708.589 104.167 716.173 100.92 723.073 104.903L1167.74 361.844C1174.64 365.827 1178.24 375.531 1175.78 383.52L1076.66 705.323C1074.21 713.312 1066.62 716.559 1059.72 712.576Z" fill="#06033E"/>
<path opacity="0.5" d="M1035.83 614.234L734.815 440.444C730.083 437.71 727.61 431.053 729.296 425.572L797.37 204.548C799.056 199.067 804.26 196.84 808.995 199.571L1110.01 373.361C1114.74 376.095 1117.22 382.752 1115.53 388.233L1047.46 609.256C1045.77 614.738 1040.57 616.965 1035.83 614.234Z" fill="#06033E"/>
<path d="M995.16 619.569L694.144 445.779C689.412 443.045 686.939 436.388 688.625 430.906L756.699 209.883C758.385 204.402 763.588 202.174 768.321 204.905L1069.34 378.699C1074.07 381.433 1076.54 388.09 1074.85 393.571L1006.78 614.594C1005.1 620.076 999.895 622.303 995.16 619.569Z" fill="url(#paint9_radial_215_345)"/>
<g opacity="0.5">
<path d="M995.16 619.569L694.144 445.779C689.412 443.045 686.939 436.388 688.625 430.906L756.699 209.883C758.385 204.402 763.588 202.174 768.321 204.905L1069.34 378.699C1074.07 381.433 1076.54 388.09 1074.85 393.571L1006.78 614.594C1005.1 620.076 999.895 622.303 995.16 619.569Z" fill="#06033E"/>
</g>
<path d="M1069.34 378.699L768.323 204.905C765.356 203.194 762.208 203.43 759.853 205.192C761.271 205.151 762.753 205.473 764.2 206.304L1065.22 380.094C1069.95 382.825 1072.42 389.486 1070.73 394.967L1002.66 615.99C1002.03 618.036 1000.9 619.626 999.503 620.678C1002.73 620.582 1005.61 618.396 1006.78 614.588L1074.86 393.565C1076.54 388.09 1074.07 381.43 1069.34 378.699Z" fill="white"/>
<path opacity="0.4" d="M615.509 800.057C611.36 800.057 607.389 799.194 604.356 797.444V797.447L483.751 727.818C480.555 725.97 478.796 723.334 478.796 720.387C478.793 716.97 481.221 713.608 485.447 711.167L547.524 675.323C555.111 670.948 566.243 670.518 572.88 674.345L693.481 743.975C696.677 745.82 698.437 748.458 698.44 751.406C698.44 754.822 696.015 758.184 691.789 760.622L629.706 796.466C625.595 798.843 620.429 800.057 615.509 800.057ZM561.787 675.26C557.428 675.26 552.798 676.308 549.27 678.344L487.193 714.185C484.07 715.986 482.279 718.248 482.279 720.387C482.279 722.499 484.029 723.953 485.498 724.8L606.102 794.43C611.573 797.581 621.583 797.142 627.969 793.448L690.049 757.607C693.169 755.807 694.96 753.544 694.96 751.406C694.96 749.293 693.21 747.84 691.741 746.992L571.14 677.363C568.693 675.948 565.328 675.26 561.787 675.26Z" fill="#06033E"/>
<path d="M841.644 320.863L823.033 310.117C821.306 309.12 820.382 306.724 820.965 304.767C821.548 302.807 823.422 302.03 825.149 303.027L843.76 313.773C845.487 314.77 846.411 317.166 845.828 319.123C845.242 321.08 843.368 321.857 841.644 320.863Z" fill="white"/>
<path d="M885.97 346.455L858.53 330.611C856.803 329.614 855.878 327.217 856.462 325.261C857.045 323.301 858.918 322.523 860.646 323.521L888.086 339.362C889.814 340.359 890.738 342.756 890.155 344.712C889.571 346.672 887.698 347.453 885.97 346.455Z" fill="white"/>
<path d="M804.111 403.714L785.5 392.969C783.773 391.971 782.849 389.575 783.432 387.618C784.015 385.658 785.889 384.881 787.616 385.875L806.227 396.621C807.954 397.618 808.878 400.015 808.295 401.971C807.712 403.931 805.838 404.712 804.111 403.714Z" fill="white"/>
<path d="M843.625 426.531L816.185 410.689C814.457 409.692 813.533 407.296 814.116 405.339C814.7 403.379 816.573 402.602 818.301 403.599L845.741 419.443C847.468 420.441 848.393 422.837 847.809 424.794C847.226 426.747 845.352 427.525 843.625 426.531Z" fill="white"/>
<path d="M785.895 306.096L774.27 299.385C772.543 298.387 771.619 295.991 772.202 294.034C772.785 292.074 774.659 291.297 776.386 292.294L788.011 299.005C789.738 300.003 790.663 302.399 790.079 304.356C789.496 306.312 787.622 307.093 785.895 306.096Z" fill="white"/>
<path d="M820.876 343.712L785.357 323.205C783.63 322.208 782.706 319.811 783.289 317.855C783.872 315.895 785.746 315.117 787.473 316.115L822.992 336.621C824.719 337.619 825.643 340.015 825.06 341.972C824.477 343.931 822.603 344.709 820.876 343.712Z" fill="white"/>
<path d="M788.116 359.639L776.491 352.928C774.764 351.93 773.84 349.534 774.423 347.577C775.006 345.617 776.88 344.84 778.607 345.837L790.232 352.548C791.96 353.546 792.884 355.942 792.301 357.899C791.714 359.855 789.84 360.636 788.116 359.639Z" fill="white"/>
<path d="M847.912 463.844L816.86 445.916C815.133 444.918 814.209 442.522 814.792 440.565C815.375 438.606 817.249 437.828 818.976 438.825L850.028 456.754C851.755 457.751 852.679 460.148 852.096 462.104C851.509 464.061 849.639 464.842 847.912 463.844Z" fill="white"/>
<path d="M775.086 386.959L767.623 382.65C765.896 381.653 764.972 379.256 765.555 377.3C766.138 375.34 768.012 374.562 769.739 375.56L777.202 379.868C778.929 380.866 779.854 383.262 779.27 385.219C778.684 387.175 776.813 387.953 775.086 386.959Z" fill="white"/>
<path d="M768.024 417.719L758.757 412.369C757.03 411.372 756.105 408.975 756.689 407.018C757.272 405.059 759.146 404.281 760.873 405.279L770.14 410.629C771.867 411.626 772.791 414.023 772.208 415.979C771.625 417.936 769.751 418.717 768.024 417.719Z" fill="white"/>
<path d="M804.075 438.535L779.643 424.431C777.916 423.433 776.992 421.037 777.575 419.08C778.158 417.12 780.032 416.343 781.759 417.34L806.191 431.445C807.919 432.442 808.843 434.838 808.26 436.795C807.676 438.752 805.803 439.533 804.075 438.535Z" fill="white"/>
<path d="M771.89 437.372L754.324 427.229C752.597 426.231 751.673 423.835 752.256 421.878C752.839 419.918 754.713 419.141 756.44 420.138L774.009 430.282C775.736 431.279 776.66 433.676 776.077 435.632C775.491 437.589 773.617 438.37 771.89 437.372Z" fill="white"/>
<path d="M874.549 479.299L863.268 472.786C861.541 471.788 860.617 469.392 861.2 467.435C861.783 465.475 863.657 464.698 865.384 465.695L876.665 472.209C878.392 473.206 879.316 475.603 878.733 477.559C878.15 479.516 876.276 480.294 874.549 479.299Z" fill="white"/>
<path d="M831.36 384.607L800.309 366.679C798.581 365.681 797.657 363.285 798.24 361.328C798.824 359.368 800.697 358.591 802.425 359.588L833.476 377.517C835.203 378.514 836.127 380.91 835.544 382.867C834.961 384.824 833.087 385.604 831.36 384.607Z" fill="white"/>
<path d="M835.04 369.311L780.924 338.065C779.196 337.068 778.272 334.671 778.855 332.715C779.439 330.755 781.312 329.977 783.04 330.975L837.156 362.22C838.883 363.218 839.807 365.614 839.224 367.571C838.641 369.527 836.767 370.308 835.04 369.311Z" fill="#E8975B"/>
<path d="M803.107 385.716L772.055 367.787C770.328 366.79 769.404 364.394 769.987 362.437C770.57 360.477 772.444 359.7 774.171 360.697L805.223 378.625C806.95 379.623 807.874 382.019 807.291 383.976C806.708 385.933 804.834 386.713 803.107 385.716Z" fill="#E8975B"/>
<path d="M854.91 398.204L843.629 391.691C841.901 390.693 840.977 388.297 841.56 386.34C842.144 384.38 844.017 383.603 845.745 384.6L857.025 391.114C858.753 392.111 859.677 394.508 859.094 396.464C858.511 398.421 856.637 399.202 854.91 398.204Z" fill="#E8975B"/>
<path d="M969.666 394.779L902.857 356.207C901.13 355.21 900.206 352.813 900.789 350.857C901.372 348.897 903.246 348.119 904.973 349.117L971.782 387.689C973.51 388.686 974.434 391.082 973.851 393.039C973.267 394.996 971.394 395.773 969.666 394.779Z" fill="#E8975B"/>
<path d="M800.516 419.058L763.19 397.51C761.463 396.512 760.539 394.116 761.122 392.159C761.705 390.199 763.579 389.422 765.306 390.416L802.632 411.965C804.359 412.962 805.283 415.358 804.7 417.315C804.117 419.275 802.243 420.056 800.516 419.058Z" fill="#F8359E"/>
<path d="M806.144 300.366L778.703 284.522C776.976 283.525 776.052 281.128 776.635 279.172C777.218 277.212 779.092 276.434 780.819 277.432L808.26 293.276C809.987 294.273 810.911 296.67 810.328 298.626C809.745 300.583 807.871 301.364 806.144 300.366Z" fill="#F8359E"/>
<path d="M766.151 451.48L734.37 433.131C732.642 432.133 731.718 429.737 732.301 427.78C732.885 425.82 734.758 425.043 736.486 426.037L768.266 444.386C769.994 445.383 770.918 447.78 770.335 449.736C769.752 451.696 767.878 452.477 766.151 451.48Z" fill="#E8975B"/>
<path d="M977.168 360.419L963.567 352.564C962.305 351.834 961.626 350.085 962.057 348.654C962.484 347.223 963.854 346.653 965.116 347.383L978.717 355.235C979.979 355.964 980.654 357.714 980.227 359.148C979.797 360.576 978.43 361.146 977.168 360.419Z" fill="white"/>
<path d="M1003.11 375.401L989.51 367.545C988.248 366.816 987.572 365.066 987.999 363.635C988.426 362.204 989.797 361.634 991.058 362.364L1004.66 370.216C1005.92 370.946 1006.6 372.695 1006.17 374.126C1005.75 375.557 1004.38 376.127 1003.11 375.401Z" fill="white"/>
<path d="M1029.06 390.378L1015.46 382.526C1014.2 381.796 1013.52 380.046 1013.95 378.616C1014.38 377.185 1015.75 376.614 1017.01 377.344L1030.61 385.196C1031.87 385.926 1032.55 387.675 1032.12 389.106C1031.69 390.537 1030.32 391.107 1029.06 390.378Z" fill="white"/>
<path d="M1041.81 397.752L1041.4 397.506C1040.14 396.777 1039.47 395.027 1039.89 393.596C1040.32 392.165 1041.69 391.595 1042.95 392.325L1043.36 392.57C1044.62 393.3 1045.3 395.049 1044.87 396.48C1044.45 397.911 1043.07 398.481 1041.81 397.752Z" fill="#F8359E"/>
<path d="M339.74 556.94C331.133 556.94 322.523 554.725 314.846 550.289L223.722 497.677C219.771 495.395 217.412 491.313 217.412 486.75C217.412 482.186 219.771 478.104 223.722 475.823L314.843 423.213C330.196 414.348 349.285 414.345 364.638 423.213L455.762 475.826C459.713 478.107 462.072 482.19 462.072 486.753C462.072 491.316 459.713 495.398 455.762 497.68L364.641 550.289C356.964 554.725 348.351 556.94 339.74 556.94ZM317.809 545.156C331.34 552.963 348.147 552.963 361.681 545.156L452.801 492.546C454.892 491.335 456.144 489.172 456.144 486.756C456.144 484.341 454.892 482.174 452.801 480.966L361.678 428.353C348.141 420.54 331.334 420.546 317.806 428.353L226.686 480.963C224.595 482.174 223.343 484.337 223.343 486.753C223.343 489.172 224.595 491.335 226.686 492.543L317.809 545.156Z" fill="url(#paint10_linear_215_345)"/>
<path opacity="0.6" d="M383.539 513.547C359.097 527.658 319.467 527.658 295.025 513.547C270.583 499.436 270.583 476.556 295.025 462.445C319.467 448.334 359.097 448.334 383.539 462.445C407.981 476.556 407.981 499.433 383.539 513.547Z" fill="#020230"/>
<path d="M432.059 230.447H253.789L270.369 423.462C270.369 434.182 277.453 444.902 291.621 453.082C319.957 469.443 365.897 469.443 394.23 453.082C408.398 444.902 415.482 434.182 415.479 423.462L432.059 230.447Z" fill="url(#paint11_radial_215_345)"/>
<path opacity="0.4" d="M432.059 230.447H253.789L256.516 262.202C260.602 267.441 266.099 272.463 273.039 277.065C307.105 299.662 363.312 304.018 401.668 287.743L395.737 428.915C395.479 435.068 393.353 441.053 389.367 445.747C383.593 452.544 372.468 460.539 351.082 465.061C366.846 464.038 382.146 460.065 394.233 453.086C408.401 444.905 415.485 434.185 415.482 423.465L428.78 268.671L432.059 230.447Z" fill="#06033E"/>
<path opacity="0.4" d="M342.924 281.909C392.152 281.909 432.059 258.868 432.059 230.446C432.059 202.025 392.152 178.984 342.924 178.984C293.696 178.984 253.789 202.025 253.789 230.446C253.789 258.868 293.696 281.909 342.924 281.909Z" fill="#06033E"/>
<path opacity="0.4" d="M342.924 256.635C385.325 256.635 419.698 236.789 419.698 212.308C419.698 187.827 385.325 167.981 342.924 167.981C300.523 167.981 266.15 187.827 266.15 212.308C266.15 236.789 300.523 256.635 342.924 256.635Z" fill="#06033E"/>
<path d="M437.339 228.021L437.349 228.034L437.333 227.878C437.327 227.789 437.314 227.703 437.308 227.614L435.596 210.332L435.523 210.526C434.758 197.445 425.749 184.494 408.455 174.51C372.264 153.615 313.587 153.615 277.399 174.51C259.668 184.749 250.646 198.101 250.293 211.517L250.27 211.473L248.639 226.861C248.594 227.263 248.54 227.661 248.511 228.063L248.486 228.315L248.502 228.302C247.523 242.964 256.711 257.808 276.099 268.999C313.007 290.309 372.85 290.309 409.762 268.999C429.264 257.737 438.452 242.776 437.339 228.021Z" fill="url(#paint12_linear_215_345)"/>
<path d="M342.924 256.635C385.325 256.635 419.698 236.789 419.698 212.308C419.698 187.827 385.325 167.981 342.924 167.981C300.523 167.981 266.15 187.827 266.15 212.308C266.15 236.789 300.523 256.635 342.924 256.635Z" fill="url(#paint13_linear_215_345)"/>
<path d="M339.282 256.635C381.683 256.635 416.056 236.789 416.056 212.308C416.056 187.827 381.683 167.981 339.282 167.981C296.881 167.981 262.508 187.827 262.508 212.308C262.508 236.789 296.881 256.635 339.282 256.635Z" fill="url(#paint14_linear_215_345)"/>
<path opacity="0.4" d="M297.743 187.566C327.723 170.256 376.337 170.256 406.317 187.566C406.7 187.786 407.018 188.028 407.391 188.251C404.498 185.673 401.123 183.223 397.209 180.963C367.226 163.653 318.616 163.653 288.635 180.963C259.034 198.054 258.715 225.606 287.561 242.964C268.301 225.791 271.676 202.617 297.743 187.566Z" fill="#06033E"/>
<path d="M288.635 188.656C318.618 171.346 367.228 171.346 397.212 188.656C410.507 196.333 417.894 206.122 419.398 216.154C421.285 203.563 413.898 190.597 397.212 180.963C367.228 163.653 318.618 163.653 288.635 180.963C271.949 190.597 264.562 203.563 266.449 216.151C267.953 206.122 275.34 196.333 288.635 188.656Z" fill="url(#paint15_linear_215_345)"/>
<path d="M409.026 174.915C372.886 153.625 313.995 153.105 277.488 173.758C240.981 194.408 240.685 228.41 276.822 249.701C312.96 270.991 371.85 271.51 408.36 250.861C444.867 230.208 445.163 196.205 409.026 174.915ZM397.213 243.652C387.197 249.436 375.088 253.241 362.302 255.159L360.91 250.58C360.346 248.732 358.641 247.467 356.71 247.467H329.142C327.21 247.467 325.502 248.732 324.942 250.58L323.549 255.159C310.764 253.241 298.658 249.436 288.642 243.652C258.658 226.342 258.658 198.277 288.639 180.967C318.619 163.656 367.232 163.656 397.213 180.967C427.193 198.277 427.193 226.342 397.213 243.652Z" fill="url(#paint16_radial_215_345)"/>
<path d="M397.209 177.684C367.225 160.374 318.615 160.374 288.635 177.684C272.921 186.757 265.458 198.783 266.217 210.666C266.905 199.876 274.368 189.204 288.635 180.966C318.615 163.656 367.229 163.656 397.209 180.966C411.476 189.204 418.939 199.876 419.628 210.67C420.389 198.783 412.926 186.757 397.209 177.684Z" fill="white"/>
<path d="M408.357 247.575C371.85 268.225 312.96 267.708 276.819 246.415C259.624 236.284 250.695 223.273 249.974 210.192C249.264 224.357 258.183 238.716 276.819 249.697C312.96 270.988 371.85 271.507 408.357 250.857C427.49 240.035 436.661 225.542 435.868 211.135C435.202 224.443 426.04 237.575 408.357 247.575Z" fill="white"/>
<path d="M351.161 257.543H334.683C333.532 257.543 332.602 256.61 332.602 255.462V255.172C332.602 254.022 333.532 253.088 334.683 253.088H351.161C352.312 253.088 353.242 254.022 353.242 255.172V255.462C353.245 256.61 352.312 257.543 351.161 257.543Z" fill="#0C0A78"/>
<path d="M351.161 253.088H334.683C333.532 253.088 332.602 254.022 332.602 255.172V255.462C332.602 255.66 332.662 255.835 332.713 256.017C332.959 255.144 333.73 254.491 334.683 254.491H351.161C352.114 254.491 352.885 255.144 353.131 256.017C353.181 255.835 353.242 255.66 353.242 255.462V255.172C353.245 254.019 352.312 253.088 351.161 253.088Z" fill="url(#paint17_linear_215_345)"/>
<path d="M345.448 403.635C343.427 411.235 335.626 415.76 328.023 413.74C320.422 411.719 315.897 403.918 317.918 396.318C319.938 388.718 327.108 386.563 334.712 388.584C342.315 390.604 347.468 396.034 345.448 403.635Z" fill="#E8975B"/>
<path d="M356.658 388.631C353.79 391.432 350.122 391.072 347.688 388.58C345.253 386.091 344.976 382.414 347.841 379.613C350.709 376.812 356.158 375.429 358.593 377.921C361.03 380.413 359.526 385.83 356.658 388.631Z" fill="#E8975B"/>
<path d="M341.763 376.716C341.062 380.665 337.866 382.503 334.437 381.891C331.008 381.283 328.644 378.453 329.348 374.505C330.049 370.556 333.682 366.264 337.111 366.876C340.54 367.488 342.468 372.771 341.763 376.716Z" fill="#E8975B"/>
<path d="M323.405 374.893C324.932 378.603 323.22 381.866 320.002 383.192C316.78 384.517 313.268 383.399 311.742 379.693C310.215 375.987 310.977 370.413 314.199 369.087C317.417 367.762 321.879 371.187 323.405 374.893Z" fill="#E8975B"/>
<path opacity="0.5" d="M348.762 255.315C348.762 255.315 398.603 238.614 378.421 181.346C358.24 124.077 318.951 106.624 334.779 60.8118C334.779 60.8118 309.974 97.8986 333.154 148.076C356.334 198.254 361.417 192.49 361.146 216.489C360.821 245 337.791 255.319 337.791 255.319L348.762 255.315Z" fill="white"/>
<path opacity="0.5" d="M353.246 68.7786C353.246 68.7786 348.058 34.5216 380.189 0C380.189 0 351.774 63.4696 361.069 94.8044C361.069 94.8044 353.552 74.8844 353.246 68.7786Z" fill="white"/>
<defs>
<linearGradient id="paint0_linear_215_345" x1="1293.4" y1="858.397" x2="1397.32" y2="858.397" gradientUnits="userSpaceOnUse">
<stop stop-color="#E39A65"/>
<stop offset="1" stop-color="#E95F8D"/>
</linearGradient>
<linearGradient id="paint1_linear_215_345" x1="1151.11" y1="715.973" x2="1325.67" y2="715.973" gradientUnits="userSpaceOnUse">
<stop stop-color="#E39A65"/>
<stop offset="1" stop-color="#E95F8D"/>
</linearGradient>
<linearGradient id="paint2_linear_215_345" x1="0" y1="774.456" x2="174.562" y2="774.456" gradientUnits="userSpaceOnUse">
<stop stop-color="#E39A65"/>
<stop offset="1" stop-color="#E95F8D"/>
</linearGradient>
<linearGradient id="paint3_linear_215_345" x1="203.23" y1="763.259" x2="1134.89" y2="763.259" gradientUnits="userSpaceOnUse">
<stop stop-color="#E39A65"/>
<stop offset="1" stop-color="#E95F8D"/>
</linearGradient>
<radialGradient id="paint4_radial_215_345" cx="0" cy="0" r="1" gradientUnits="userSpaceOnUse" gradientTransform="translate(717.84 73.4829) scale(711.579 711.579)">
<stop stop-color="#E39A65"/>
<stop offset="0.4742" stop-color="#A92FFB"/>
<stop offset="0.5947" stop-color="#891CFB"/>
<stop offset="0.7421" stop-color="#6507FA"/>
<stop offset="0.8016" stop-color="#0D0C6F"/>
</radialGradient>
<radialGradient id="paint5_radial_215_345" cx="0" cy="0" r="1" gradientUnits="userSpaceOnUse" gradientTransform="translate(282.623 644.932) scale(778.105 778.105)">
<stop stop-color="#E39A65"/>
<stop offset="0.4742" stop-color="#A92FFB"/>
<stop offset="0.5679" stop-color="#891CFB"/>
<stop offset="0.6825" stop-color="#6507FA"/>
<stop offset="0.7381" stop-color="#0D0C6F"/>
</radialGradient>
<radialGradient id="paint6_radial_215_345" cx="0" cy="0" r="1" gradientUnits="userSpaceOnUse" gradientTransform="translate(354.188 488.754) scale(697.761 697.761)">
<stop stop-color="#E39A65"/>
<stop offset="0.4742" stop-color="#A92FFB"/>
<stop offset="0.5875" stop-color="#891CFB"/>
<stop offset="0.7262" stop-color="#6507FA"/>
<stop offset="1" stop-color="#3919BB"/>
</radialGradient>
<radialGradient id="paint7_radial_215_345" cx="0" cy="0" r="1" gradientUnits="userSpaceOnUse" gradientTransform="translate(528.014 221.912) scale(711.721 711.721)">
<stop stop-color="#E39A65"/>
<stop offset="0.4742" stop-color="#A92FFB"/>
<stop offset="0.5875" stop-color="#891CFB"/>
<stop offset="0.7262" stop-color="#6507FA"/>
<stop offset="1" stop-color="#3919BB"/>
</radialGradient>
<linearGradient id="paint8_linear_215_345" x1="606.24" y1="408.74" x2="1176.55" y2="408.74" gradientUnits="userSpaceOnUse">
<stop stop-color="#3919BB"/>
<stop offset="1" stop-color="#6507FA"/>
</linearGradient>
<radialGradient id="paint9_radial_215_345" cx="0" cy="0" r="1" gradientUnits="userSpaceOnUse" gradientTransform="translate(268.197 69.9273) scale(1108.49 1108.49)">
<stop stop-color="#E39A65"/>
<stop offset="0.4742" stop-color="#A92FFB"/>
<stop offset="0.5875" stop-color="#891CFB"/>
<stop offset="0.7262" stop-color="#6507FA"/>
<stop offset="1" stop-color="#3919BB"/>
</radialGradient>
<linearGradient id="paint10_linear_215_345" x1="217.411" y1="486.755" x2="462.072" y2="486.755" gradientUnits="userSpaceOnUse">
<stop stop-color="#E39A65"/>
<stop offset="1" stop-color="#E95F8D"/>
</linearGradient>
<radialGradient id="paint11_radial_215_345" cx="0" cy="0" r="1" gradientUnits="userSpaceOnUse" gradientTransform="translate(239.102 287.186) scale(526.918 526.918)">
<stop stop-color="#E39A65"/>
<stop offset="0.1528" stop-color="#A92FFB"/>
<stop offset="0.4087" stop-color="#3919BB"/>
<stop offset="0.9311" stop-color="#3919BB"/>
</radialGradient>
<linearGradient id="paint12_linear_215_345" x1="248.427" y1="221.911" x2="437.429" y2="221.911" gradientUnits="userSpaceOnUse">
<stop stop-color="#E39A65"/>
<stop offset="0.252" stop-color="#A92FFB"/>
<stop offset="0.5556" stop-color="#3919BB"/>
</linearGradient>
<linearGradient id="paint13_linear_215_345" x1="266.149" y1="212.308" x2="419.698" y2="212.308" gradientUnits="userSpaceOnUse">
<stop stop-color="#4F1FEC"/>
<stop offset="1" stop-color="#A92FFB"/>
</linearGradient>
<linearGradient id="paint14_linear_215_345" x1="262.507" y1="212.308" x2="416.056" y2="212.308" gradientUnits="userSpaceOnUse">
<stop stop-color="#4F1FEC"/>
<stop offset="1" stop-color="#A92FFB"/>
</linearGradient>
<linearGradient id="paint15_linear_215_345" x1="266.162" y1="192.069" x2="459.761" y2="192.069" gradientUnits="userSpaceOnUse">
<stop stop-color="#131060"/>
<stop offset="0.1857" stop-color="#141062"/>
<stop offset="0.2823" stop-color="#19106A"/>
<stop offset="0.3584" stop-color="#221078"/>
<stop offset="0.4238" stop-color="#2E0F8B"/>
<stop offset="0.4823" stop-color="#3E0FA3"/>
<stop offset="0.5359" stop-color="#510EC2"/>
<stop offset="0.5847" stop-color="#680DE5"/>
<stop offset="0.6071" stop-color="#740DF8"/>
<stop offset="0.6179" stop-color="#7A14F0"/>
<stop offset="0.6826" stop-color="#9B3CC3"/>
<stop offset="0.7477" stop-color="#B75D9D"/>
<stop offset="0.8123" stop-color="#CC7680"/>
<stop offset="0.8762" stop-color="#DC886C"/>
<stop offset="0.9391" stop-color="#E5935F"/>
<stop offset="1" stop-color="#E8975B"/>
</linearGradient>
<radialGradient id="paint16_radial_215_345" cx="0" cy="0" r="1" gradientUnits="userSpaceOnUse" gradientTransform="translate(224.837 168.438) scale(344.688 344.688)">
<stop stop-color="#E39A65"/>
<stop offset="0.252" stop-color="#A92FFB"/>
<stop offset="0.7357" stop-color="#3919BB"/>
</radialGradient>
<linearGradient id="paint17_linear_215_345" x1="330.772" y1="254.551" x2="357.555" y2="254.551" gradientUnits="userSpaceOnUse">
<stop stop-color="#131060"/>
<stop offset="0.1857" stop-color="#141062"/>
<stop offset="0.2823" stop-color="#19106A"/>
<stop offset="0.3584" stop-color="#221078"/>
<stop offset="0.4238" stop-color="#2E0F8B"/>
<stop offset="0.4823" stop-color="#3E0FA3"/>
<stop offset="0.5359" stop-color="#510EC2"/>
<stop offset="0.5847" stop-color="#680DE5"/>
<stop offset="0.6071" stop-color="#740DF8"/>
<stop offset="0.6179" stop-color="#7A14F0"/>
<stop offset="0.6826" stop-color="#9B3CC3"/>
<stop offset="0.7477" stop-color="#B75D9D"/>
<stop offset="0.8123" stop-color="#CC7680"/>
<stop offset="0.8762" stop-color="#DC886C"/>
<stop offset="0.9391" stop-color="#E5935F"/>
<stop offset="1" stop-color="#E8975B"/>
</linearGradient>
</defs>
</svg>
